<svg xmlns="http://www.w3.org/2000/svg" width="128" height="64" viewBox="0 0 128 64"><defs><linearGradient id="b" x2="0" y2="1"><stop stop-color="#463428"/><stop offset="1" stop-color="#292019"/></linearGradient></defs><path d="M8 1H120L127 8V56L120 63H8L1 56V8Z" fill="#100c09"/><path d="M9 3H119L125 9V55L119 61H9L3 55V9Z" fill="url(#b)" stroke="#896840" stroke-width="1.5"/><path d="M15 7H113L120 14V50L113 57H15L8 50V14Z" fill="none" stroke="#b18b56" stroke-opacity=".44" stroke-width=".8"/><g transform=""><path d="M6 24L13 19L16 25L12 32L16 39L13 45L6 40M7 27L10 32L7 37" fill="none" stroke="#b18b56" stroke-width="1" opacity=".65"/><path d="M17 9L22 11L20 14L15 12Z M17 55L22 53L20 50L15 52Z" fill="#b18b56" opacity=".45"/></g><g transform="translate(128 0) scale(-1 1)"><path d="M6 24L13 19L16 25L12 32L16 39L13 45L6 40M7 27L10 32L7 37" fill="none" stroke="#b18b56" stroke-width="1" opacity=".65"/><path d="M17 9L22 11L20 14L15 12Z M17 55L22 53L20 50L15 52Z" fill="#b18b56" opacity=".45"/></g></svg>
